<svg width="800px" height="800px" viewBox="0 0 24 24" fill="none" xmlns="http://www.w3.org/2000/svg">
<path d="M3 3L21 21" stroke="white" stroke-width="2" stroke-linecap="round" stroke-linejoin="round"></path>
<path d="M10.584 10.587C10.2109 11.0045 10.0031 11.5181 10 12.052C9.99997 12.5858 10.2077 13.0994 10.5808 13.517C10.9539 13.9346 11.4633 14.2259 12.0274 14.3469C12.5915 14.468 13.1808 14.4112 13.708 14.183C14.2352 13.9548 14.6706 13.5654 14.9516 13.0733C15.2327 12.5812 15.3458 12.0138 15.276 11.455M17.94 17.94C16.054 18.923 14.051 19.408 12 19.4C7 19.4 2.73 16.29 1 12.3C1.74 10.67 2.83 9.21 4.19 8.02M9.88 4.54C10.57 4.36 11.28 4.26 12 4.26C17 4.26 21.27 7.37 23 11.36C22.395 12.77 21.552 14.077 20.51 15.23L9.88 4.54Z" stroke="white" stroke-width="2" stroke-linecap="round" stroke-linejoin="round"></path>
</svg>
